# Blender v2.79 (sub 0) OBJ File: ''
# www.blender.org
mtllib Ground.mtl
o Cube
v 4.198163 -0.152760 -4.198163
v 4.198163 -0.152760 4.198163
v -4.198163 -0.152760 4.198162
v -4.198161 -0.152760 -4.198164
v 4.198164 0.574773 -4.198161
v 4.198160 0.574773 4.198165
v -4.198164 0.574773 4.198161
v -4.198162 0.574773 -4.198163
v 4.198162 0.308527 0.000002
v 0.000001 0.308527 -4.198162
v -0.000002 0.308527 4.198163
v -4.198163 0.308527 -0.000001
v -0.000000 0.654555 0.000000
v 4.198161 0.354486 2.099084
v -2.099080 0.354486 -4.198162
v -2.099083 0.354486 4.198162
v -4.198163 0.354486 -2.099082
v 4.198163 0.354486 -2.099079
v 2.099083 0.354486 -4.198161
v 2.099079 0.354486 4.198164
v -4.198164 0.354486 2.099080
v -0.000001 0.368258 2.099082
v 0.000001 0.368258 -2.099081
v 2.099081 0.368258 0.000001
v -2.099082 0.368258 -0.000000
v -2.099081 0.308527 -2.099081
v 2.099082 0.308527 -2.099080
v 2.099080 0.308527 2.099083
v -2.099082 0.308527 2.099081
v 4.198161 0.493195 3.148624
v -3.148621 0.493195 -4.198162
v -3.148623 0.493195 4.198162
v -4.198162 0.493195 -3.148622
v 4.198163 0.308527 -1.049538
v 1.049542 0.308527 -4.198161
v 1.049539 0.308527 4.198164
v -4.198163 0.308527 1.049540
v -0.000001 0.308527 3.148623
v 0.000000 0.548532 -1.049540
v 3.148622 0.308527 0.000002
v -1.049541 0.548532 0.000000
v 4.198162 0.308527 1.049543
v -1.049539 0.308527 -4.198162
v -1.049542 0.308527 4.198163
v -4.198163 0.308527 -1.049541
v 4.198164 0.493195 -3.148620
v 3.148624 0.493195 -4.198161
v 3.148620 0.493195 4.198164
v -4.198164 0.493195 3.148621
v -0.000001 0.548532 1.049541
v 0.000001 0.308527 -3.148621
v 1.049540 0.548532 0.000001
v -3.148622 0.308527 -0.000001
v -2.099081 0.337346 -1.049541
v -2.099081 0.330701 -3.148622
v -1.049540 0.337346 -2.099081
v -3.148622 0.330701 -2.099082
v 2.099082 0.337346 -1.049539
v 2.099082 0.330701 -3.148621
v 3.148623 0.330701 -2.099080
v 1.049541 0.337346 -2.099080
v 2.099080 0.330701 3.148623
v 2.099081 0.337346 1.049542
v 3.148621 0.330701 2.099083
v 1.049539 0.337346 2.099082
v -2.099082 0.330701 3.148622
v -2.099082 0.337346 1.049540
v -1.049542 0.337346 2.099081
v -3.148623 0.330701 2.099081
v -3.148623 0.308527 1.049540
v -1.049541 0.471047 1.049541
v -1.049542 0.308527 3.148622
v 1.049540 0.471047 1.049542
v 3.148621 0.308527 1.049543
v 3.148620 0.433576 3.148624
v 1.049542 0.308527 -3.148621
v 3.148623 0.433575 -3.148620
v 3.148622 0.308527 -1.049539
v -3.148622 0.433576 -3.148622
v -1.049540 0.308527 -3.148622
v -1.049541 0.471047 -1.049540
v -3.148622 0.308527 -1.049541
v 1.049541 0.471047 -1.049540
v 1.049539 0.308527 3.148623
v -3.148623 0.433576 3.148621
v 4.198160 0.551066 3.673395
v -3.673392 0.551066 -4.198162
v -3.673394 0.551066 4.198161
v -4.198162 0.551066 -3.673392
v 4.198162 0.308527 -0.524768
v 0.524772 0.308527 -4.198161
v 0.524768 0.308527 4.198163
v -4.198163 0.308527 0.524769
v -0.000002 0.308527 3.673393
v -0.000000 0.623743 -0.524770
v 3.673392 0.308527 0.000002
v -0.524771 0.623743 0.000000
v 4.198161 0.313408 1.574313
v -1.574310 0.313408 -4.198162
v -1.574313 0.313408 4.198162
v -4.198163 0.313408 -1.574311
v 4.198164 0.421042 -2.623849
v 2.623853 0.421042 -4.198161
v 2.623849 0.421042 4.198164
v -4.198164 0.421042 2.623850
v -0.000001 0.454758 1.574311
v 0.000001 0.314871 -2.623851
v 1.574311 0.454758 0.000001
v -2.623852 0.314871 -0.000000
v -2.099082 0.359377 -0.524770
v -2.099081 0.313408 -2.623851
v -0.524770 0.359377 -2.099081
v -2.623851 0.313408 -2.099081
v 2.099081 0.359377 -0.524769
v 2.099082 0.313408 -2.623850
v 3.673393 0.347652 -2.099079
v 1.574312 0.314871 -2.099080
v 2.099079 0.347652 3.673394
v 2.099080 0.314871 1.574312
v 3.673391 0.347652 2.099083
v 1.574310 0.314871 2.099082
v -2.099083 0.347652 3.673392
v -2.099082 0.314871 1.574311
v -0.524771 0.359377 2.099082
v -2.623853 0.313408 2.099081
v 4.198161 0.421042 2.623854
v -2.623851 0.421042 -4.198162
v -2.623853 0.421042 4.198162
v -4.198162 0.421042 -2.623852
v 4.198163 0.313408 -1.574309
v 1.574313 0.313408 -4.198161
v 1.574309 0.313408 4.198164
v -4.198163 0.313408 1.574310
v -0.000001 0.314871 2.623852
v 0.000000 0.454758 -1.574310
v 2.623851 0.314871 0.000002
v -1.574311 0.454758 -0.000000
v 4.198162 0.308527 0.524773
v -0.524769 0.308527 -4.198162
v -0.524772 0.308527 4.198163
v -4.198163 0.308527 -0.524771
v 4.198164 0.551066 -3.673390
v 3.673394 0.551066 -4.198161
v 3.673390 0.551066 4.198165
v -4.198164 0.551066 3.673391
v -0.000000 0.623743 0.524771
v 0.000001 0.308527 -3.673391
v 0.524770 0.623743 0.000001
v -3.673393 0.308527 -0.000001
v -2.099081 0.314871 -1.574311
v -2.099081 0.347652 -3.673392
v -1.574311 0.314871 -2.099081
v -3.673392 0.347652 -2.099082
v 2.099082 0.314871 -1.574310
v 2.099083 0.347652 -3.673391
v 2.623852 0.313408 -2.099080
v 0.524771 0.359377 -2.099080
v 2.099080 0.313408 2.623853
v 2.099081 0.359377 0.524772
v 2.623850 0.313408 2.099083
v 0.524769 0.359377 2.099082
v -2.099082 0.313408 2.623851
v -2.099082 0.359377 0.524770
v -1.574312 0.314871 2.099081
v -3.673393 0.347652 2.099080
v -3.148623 0.308598 1.574310
v -3.148623 0.308527 0.524770
v -2.623852 0.308620 1.049540
v -3.673393 0.308527 1.049540
v -1.049541 0.399858 1.574311
v -1.049541 0.527109 0.524770
v -0.524771 0.527109 1.049541
v -1.574312 0.399858 1.049541
v -1.049542 0.308527 3.673392
v -1.049542 0.308620 2.623852
v -0.524772 0.308527 3.148622
v -1.574312 0.308598 3.148622
v 1.049540 0.399858 1.574312
v 1.049540 0.527109 0.524771
v 1.574310 0.399858 1.049542
v 0.524770 0.527109 1.049541
v 3.148621 0.308598 1.574313
v 3.148621 0.308527 0.524772
v 3.673391 0.308527 1.049543
v 2.623851 0.308620 1.049542
v 3.148620 0.476711 3.673394
v 3.148620 0.378800 2.623854
v 3.673390 0.476711 3.148624
v 2.623850 0.378800 3.148624
v 1.049541 0.308620 -2.623850
v 1.049542 0.308527 -3.673391
v 1.574312 0.308598 -3.148621
v 0.524771 0.308527 -3.148621
v 3.148623 0.378800 -2.623850
v 3.148623 0.476711 -3.673391
v 3.673393 0.476711 -3.148620
v 2.623853 0.378800 -3.148621
v 3.148622 0.308527 -0.524768
v 3.148622 0.308598 -1.574309
v 3.673392 0.308527 -1.049539
v 2.623852 0.308620 -1.049539
v -3.148622 0.378800 -2.623852
v -3.148621 0.476711 -3.673392
v -2.623851 0.378800 -3.148622
v -3.673392 0.476711 -3.148622
v -1.049540 0.308620 -2.623851
v -1.049540 0.308527 -3.673392
v -0.524769 0.308527 -3.148621
v -1.574310 0.308598 -3.148622
v -1.049541 0.527109 -0.524770
v -1.049540 0.399858 -1.574311
v -0.524770 0.527109 -1.049540
v -1.574311 0.399858 -1.049541
v -3.148622 0.308527 -0.524771
v -3.148622 0.308598 -1.574311
v -2.623852 0.308620 -1.049541
v -3.673393 0.308527 -1.049541
v 1.049541 0.527109 -0.524769
v 1.049541 0.399858 -1.574310
v 1.574311 0.399858 -1.049539
v 0.524770 0.527109 -1.049540
v 1.049539 0.308527 3.673393
v 1.049539 0.308620 2.623853
v 1.574309 0.308598 3.148623
v 0.524769 0.308527 3.148623
v -3.148623 0.476711 3.673391
v -3.148623 0.378800 2.623851
v -2.623853 0.378800 3.148621
v -3.673394 0.476711 3.148621
v -3.673393 0.409338 2.623851
v -2.623853 0.341421 2.623851
v -2.623853 0.409338 3.673392
v 0.524769 0.312369 2.623852
v 1.574310 0.308527 2.623853
v 1.574309 0.311483 3.673394
v 0.524771 0.439546 -1.574310
v 1.574311 0.351279 -1.574310
v 1.574311 0.439546 -0.524769
v -3.673392 0.311483 -1.574311
v -2.623852 0.308527 -1.574311
v -2.623852 0.312369 -0.524771
v -1.574311 0.351279 -1.574311
v -0.524770 0.439546 -1.574310
v -0.524770 0.596499 -0.524770
v -1.574310 0.311483 -3.673392
v -0.524769 0.308527 -3.673392
v -0.524770 0.312369 -2.623851
v -3.673392 0.530102 -3.673392
v -2.623851 0.409337 -3.673392
v -2.623851 0.341421 -2.623851
v 2.623852 0.308527 -1.574309
v 3.673393 0.311483 -1.574309
v 3.673392 0.308527 -0.524768
v 2.623853 0.409338 -3.673391
v 3.673394 0.530102 -3.673391
v 3.673393 0.409338 -2.623850
v 0.524772 0.308527 -3.673391
v 1.574312 0.311483 -3.673391
v 1.574312 0.308527 -2.623850
v 2.623850 0.341421 2.623853
v 3.673391 0.409338 2.623854
v 3.673390 0.530102 3.673395
v 2.623851 0.312369 0.524772
v 3.673392 0.308527 0.524772
v 3.673391 0.311483 1.574313
v 0.524770 0.596499 0.524771
v 1.574310 0.439546 0.524772
v 1.574310 0.351279 1.574312
v -1.574312 0.308527 2.623851
v -0.524772 0.312369 2.623852
v -0.524772 0.308527 3.673393
v -1.574311 0.439546 0.524770
v -0.524771 0.596499 0.524771
v -0.524771 0.439546 1.574311
v -3.673393 0.308527 0.524769
v -2.623852 0.312369 0.524770
v -2.623852 0.308527 1.574310
v -3.673393 0.311483 1.574310
v -1.574312 0.351279 1.574311
v -1.574312 0.311483 3.673392
v 0.524769 0.439546 1.574312
v 2.623851 0.308527 1.574313
v 2.623850 0.409338 3.673394
v 0.524771 0.312369 -2.623851
v 2.623852 0.341421 -2.623850
v 2.623852 0.312369 -0.524769
v -3.673392 0.409338 -2.623852
v -1.574310 0.308527 -2.623851
v -1.574311 0.439546 -0.524770
v -3.673393 0.308527 -0.524771
v 0.524770 0.596499 -0.524770
v 0.524769 0.308527 3.673393
v -3.673394 0.530102 3.673391
vn 0.0000 -1.0000 -0.0000
vn 0.0425 0.9982 -0.0425
vn 1.0000 0.0000 0.0000
vn -0.0000 -0.0000 1.0000
vn -1.0000 -0.0000 -0.0000
vn 0.0000 0.0000 -1.0000
vn 0.0000 1.0000 -0.0000
vn 0.0551 0.9970 -0.0551
vn -0.1568 0.9874 -0.0227
vn -0.0014 1.0000 -0.0014
vn 0.0175 0.9925 0.1213
vn 0.0952 0.9954 -0.0108
vn -0.0313 0.9990 0.0313
vn 0.0108 0.9954 -0.0952
vn -0.1213 0.9925 -0.0175
vn 0.0014 1.0000 0.0014
vn 0.0227 0.9874 0.1568
vn 0.0734 0.9973 -0.0083
vn -0.0407 0.9983 0.0407
vn 0.0083 0.9973 -0.0734
vn 0.0165 0.9995 -0.0257
vn -0.0038 1.0000 0.0036
vn -0.0582 0.9892 0.1345
vn -0.1179 0.9860 0.1179
vn -0.1345 0.9892 0.0582
vn -0.0036 1.0000 0.0038
vn 0.0257 0.9995 -0.0165
vn 0.0672 0.9933 0.0936
vn 0.1490 0.9848 0.0898
vn 0.0459 0.9896 0.1363
vn -0.0189 0.9983 -0.0554
vn 0.0719 0.9971 0.0245
vn -0.1054 0.9938 -0.0355
vn -0.0696 0.9909 -0.1153
vn -0.0722 0.9960 -0.0519
vn 0.0215 0.9992 -0.0334
vn -0.0029 1.0000 0.0027
vn -0.0450 0.9936 0.1039
vn -0.0912 0.9916 0.0912
vn -0.1039 0.9936 0.0450
vn -0.0027 1.0000 0.0029
vn 0.0334 0.9992 -0.0215
vn 0.0519 0.9960 0.0722
vn 0.1153 0.9909 0.0696
vn 0.0355 0.9938 0.1054
vn -0.0245 0.9971 -0.0720
vn 0.0554 0.9983 0.0189
vn -0.1363 0.9896 -0.0459
vn -0.0898 0.9848 -0.1490
vn -0.0936 0.9933 -0.0672
vn -0.0097 0.9999 -0.0024
vn 0.0018 1.0000 0.0075
vn 0.1702 0.9848 -0.0344
vn 0.1127 0.9872 -0.1127
vn 0.0344 0.9848 -0.1702
vn -0.0075 1.0000 -0.0018
vn 0.0024 0.9999 0.0097
vn 0.1317 0.9909 -0.0266
vn 0.0871 0.9924 -0.0871
vn 0.0266 0.9909 -0.1317
vn 0.0696 0.9909 -0.1153
vn 0.0450 0.9936 -0.1039
vn 0.0175 0.9925 -0.1213
vn 0.0722 0.9960 -0.0519
vn 0.0313 0.9990 -0.0313
vn 0.0519 0.9960 -0.0722
vn 0.1213 0.9925 -0.0175
vn 0.1039 0.9936 -0.0450
vn 0.1153 0.9909 -0.0696
vn 0.0036 1.0000 0.0038
vn 0.0245 0.9971 0.0719
vn 0.0108 0.9954 0.0952
vn -0.0257 0.9995 -0.0165
vn 0.0215 0.9992 0.0334
vn -0.0734 0.9973 -0.0083
vn -0.0554 0.9983 -0.0189
vn -0.0029 1.0000 -0.0027
vn 0.0898 0.9848 -0.1490
vn 0.0582 0.9892 -0.1345
vn 0.0227 0.9874 -0.1568
vn 0.0936 0.9933 -0.0672
vn 0.0407 0.9983 -0.0407
vn 0.0672 0.9933 -0.0936
vn 0.1568 0.9874 -0.0227
vn 0.1345 0.9892 -0.0582
vn 0.1490 0.9848 -0.0898
vn 0.0027 1.0000 0.0029
vn 0.0189 0.9983 0.0554
vn 0.0083 0.9973 0.0734
vn -0.0334 0.9992 -0.0215
vn 0.0165 0.9995 0.0257
vn -0.0952 0.9954 -0.0108
vn -0.0719 0.9971 -0.0245
vn -0.0038 1.0000 -0.0036
vn -0.1127 0.9872 -0.1127
vn -0.0672 0.9933 -0.0936
vn -0.0407 0.9983 -0.0407
vn -0.0344 0.9848 -0.1702
vn -0.0227 0.9874 -0.1568
vn -0.0582 0.9892 -0.1345
vn -0.0551 0.9970 -0.0551
vn -0.0459 0.9896 -0.1363
vn -0.1179 0.9860 -0.1179
vn 0.0029 1.0000 0.0027
vn 0.0075 1.0000 0.0018
vn 0.0734 0.9973 0.0083
vn -0.0108 0.9954 -0.0952
vn -0.0024 1.0000 -0.0097
vn -0.0036 1.0000 -0.0038
vn 0.0912 0.9916 0.0912
vn 0.1054 0.9938 0.0355
vn 0.0425 0.9982 0.0425
vn 0.1039 0.9936 0.0450
vn 0.1213 0.9925 0.0175
vn 0.1317 0.9909 0.0266
vn 0.0313 0.9990 0.0313
vn 0.0722 0.9960 0.0519
vn 0.0871 0.9924 0.0871
vn -0.0165 0.9995 0.0257
vn 0.0014 1.0000 -0.0014
vn -0.0018 1.0000 0.0075
vn -0.0083 0.9973 0.0734
vn -0.0189 0.9983 0.0554
vn -0.1153 0.9909 0.0696
vn -0.1317 0.9909 0.0266
vn -0.1213 0.9925 0.0175
vn -0.0355 0.9938 0.1054
vn -0.0425 0.9982 0.0425
vn -0.1054 0.9938 0.0355
vn -0.0175 0.9925 0.1213
vn -0.0266 0.9909 0.1317
vn -0.0696 0.9909 0.1153
vn -0.0554 0.9983 0.0189
vn -0.0734 0.9973 0.0083
vn -0.0075 1.0000 0.0018
vn -0.0257 0.9995 0.0165
vn -0.0871 0.9924 -0.0871
vn -0.0519 0.9960 -0.0722
vn -0.0313 0.9990 -0.0313
vn -0.0266 0.9909 -0.1317
vn -0.0175 0.9925 -0.1213
vn -0.0450 0.9936 -0.1039
vn -0.0425 0.9982 -0.0425
vn -0.0355 0.9938 -0.1054
vn -0.0912 0.9916 -0.0912
vn 0.0038 1.0000 0.0036
vn 0.0097 0.9999 0.0024
vn 0.0952 0.9954 0.0108
vn -0.0083 0.9973 -0.0734
vn -0.0018 1.0000 -0.0075
vn -0.0027 1.0000 -0.0029
vn 0.1179 0.9860 0.1179
vn 0.1363 0.9896 0.0459
vn 0.0551 0.9970 0.0551
vn 0.1345 0.9892 0.0582
vn 0.1568 0.9874 0.0227
vn 0.1702 0.9848 0.0344
vn 0.0407 0.9983 0.0407
vn 0.0936 0.9933 0.0672
vn 0.1127 0.9872 0.1127
vn -0.0215 0.9992 0.0334
vn -0.0014 1.0000 0.0014
vn -0.0024 1.0000 0.0097
vn -0.0108 0.9954 0.0952
vn -0.0245 0.9971 0.0719
vn -0.1490 0.9848 0.0898
vn -0.1702 0.9848 0.0344
vn -0.1568 0.9874 0.0227
vn -0.0459 0.9896 0.1363
vn -0.0551 0.9970 0.0551
vn -0.1363 0.9896 0.0459
vn -0.0227 0.9874 0.1568
vn -0.0344 0.9848 0.1702
vn -0.0898 0.9848 0.1490
vn -0.0719 0.9971 0.0245
vn -0.0952 0.9954 0.0108
vn -0.0097 0.9999 0.0024
vn -0.0334 0.9992 0.0215
vn 0.0189 0.9983 -0.0554
vn 0.0027 1.0000 -0.0029
vn 0.0018 1.0000 -0.0075
vn -0.0672 0.9933 0.0936
vn -0.1127 0.9872 0.1127
vn -0.0936 0.9933 0.0672
vn 0.0075 1.0000 -0.0018
vn 0.0029 1.0000 -0.0027
vn 0.0554 0.9983 -0.0189
vn 0.0582 0.9892 0.1345
vn 0.0898 0.9848 0.1490
vn 0.0344 0.9848 0.1702
vn -0.0165 0.9995 -0.0257
vn 0.0334 0.9992 0.0215
vn -0.1317 0.9909 -0.0266
vn -0.1153 0.9909 -0.0696
vn -0.1039 0.9936 -0.0450
vn 0.0245 0.9971 -0.0720
vn 0.0036 1.0000 -0.0038
vn 0.0024 1.0000 -0.0097
vn -0.0519 0.9960 0.0722
vn -0.0871 0.9924 0.0871
vn -0.0722 0.9960 0.0519
vn 0.0097 1.0000 -0.0024
vn 0.0038 1.0000 -0.0036
vn 0.0719 0.9971 -0.0245
vn 0.0450 0.9936 0.1039
vn 0.0696 0.9909 0.1153
vn 0.0266 0.9909 0.1317
vn -0.0215 0.9992 -0.0334
vn 0.0257 0.9995 0.0165
vn -0.1702 0.9848 -0.0344
vn -0.1490 0.9848 -0.0898
vn -0.1345 0.9892 -0.0582
vn 0.1363 0.9896 -0.0459
vn 0.1179 0.9860 -0.1179
vn 0.0459 0.9896 -0.1363
vn 0.1054 0.9938 -0.0355
vn 0.0912 0.9916 -0.0912
vn 0.0355 0.9938 -0.1054
usemtl Material
s off
f 1//1 2//1 3//1 4//1
f 293//2 145//2 7//2 88//2
f 1//3 5//3 142//3 46//3 102//3 18//3 130//3 34//3 90//3 9//3 138//3 42//3 98//3 14//3 126//3 30//3 86//3 6//3 2//3
f 2//4 6//4 144//4 48//4 104//4 20//4 132//4 36//4 92//4 11//4 140//4 44//4 100//4 16//4 128//4 32//4 88//4 7//4 3//4
f 3//5 7//5 145//5 49//5 105//5 21//5 133//5 37//5 93//5 12//5 141//5 45//5 101//5 17//5 129//5 33//5 89//5 8//5 4//5
f 5//6 1//6 4//6 8//6 87//6 31//6 127//6 15//6 99//6 43//6 139//6 10//6 91//6 35//6 131//6 19//6 103//6 47//6 143//6
f 292//7 94//7 11//7 92//7
f 291//8 95//8 13//8 148//8
f 290//7 141//7 12//7 149//7
f 289//9 110//9 25//9 137//9
f 288//10 111//10 26//10 152//10
f 287//11 129//11 17//11 153//11
f 286//12 114//12 24//12 136//12
f 285//13 115//13 27//13 156//13
f 284//14 107//14 23//14 157//14
f 283//15 118//15 20//15 104//15
f 282//16 119//16 28//16 160//16
f 281//17 106//17 22//17 161//17
f 280//18 122//18 16//18 100//18
f 279//19 123//19 29//19 164//19
f 278//20 133//20 21//20 165//20
f 277//21 166//21 69//21 125//21
f 276//22 167//22 70//22 168//22
f 275//7 93//7 37//7 169//7
f 274//23 170//23 68//23 124//23
f 273//24 171//24 71//24 172//24
f 272//25 163//25 67//25 173//25
f 271//7 174//7 44//7 140//7
f 270//26 175//26 72//26 176//26
f 269//27 162//27 66//27 177//27
f 268//28 178//28 65//28 121//28
f 267//29 179//29 73//29 180//29
f 266//30 146//30 50//30 181//30
f 265//31 182//31 64//31 120//31
f 264//7 183//7 74//7 184//7
f 263//32 159//32 63//32 185//32
f 262//33 186//33 48//33 144//33
f 261//34 187//34 75//34 188//34
f 260//35 158//35 62//35 189//35
f 259//36 190//36 61//36 117//36
f 258//37 191//37 76//37 192//37
f 257//7 147//7 51//7 193//7
f 256//38 194//38 60//38 116//38
f 255//39 195//39 77//39 196//39
f 254//40 155//40 59//40 197//40
f 253//7 198//7 40//7 96//7
f 252//41 199//41 78//41 200//41
f 251//42 154//42 58//42 201//42
f 250//43 202//43 57//43 113//43
f 249//44 203//44 79//44 204//44
f 248//45 89//45 33//45 205//45
f 247//46 206//46 56//46 112//46
f 246//7 207//7 80//7 208//7
f 245//47 151//47 55//47 209//47
f 244//48 210//48 41//48 97//48
f 243//49 211//49 81//49 212//49
f 242//50 150//50 54//50 213//50
f 241//51 214//51 53//51 109//51
f 240//7 215//7 82//7 216//7
f 239//52 101//52 45//52 217//52
f 238//53 218//53 52//53 108//53
f 237//54 219//54 83//54 220//54
f 236//55 135//55 39//55 221//55
f 235//56 222//56 36//56 132//56
f 234//7 223//7 84//7 224//7
f 233//57 134//57 38//57 225//57
f 232//58 226//58 32//58 128//58
f 231//59 227//59 85//59 228//59
f 230//60 105//60 49//60 229//60
f 227//61 230//61 229//61 85//61
f 69//62 165//62 230//62 227//62
f 165//63 21//63 105//63 230//63
f 162//64 231//64 228//64 66//64
f 29//65 125//65 231//65 162//65
f 125//66 69//66 227//66 231//66
f 122//67 232//67 128//67 16//67
f 66//68 228//68 232//68 122//68
f 228//69 85//69 226//69 232//69
f 223//70 233//70 225//70 84//70
f 65//71 161//71 233//71 223//71
f 161//72 22//72 134//72 233//72
f 158//73 234//73 224//73 62//73
f 28//16 121//16 234//16 158//16
f 121//74 65//74 223//74 234//74
f 118//75 235//75 132//75 20//75
f 62//76 224//76 235//76 118//76
f 224//77 84//77 222//77 235//77
f 219//78 236//78 221//78 83//78
f 61//79 157//79 236//79 219//79
f 157//80 23//80 135//80 236//80
f 154//81 237//81 220//81 58//81
f 27//82 117//82 237//82 154//82
f 117//83 61//83 219//83 237//83
f 114//84 238//84 108//84 24//84
f 58//85 220//85 238//85 114//85
f 220//86 83//86 218//86 238//86
f 215//87 239//87 217//87 82//87
f 57//88 153//88 239//88 215//88
f 153//89 17//89 101//89 239//89
f 150//90 240//90 216//90 54//90
f 26//10 113//10 240//10 150//10
f 113//91 57//91 215//91 240//91
f 110//92 241//92 109//92 25//92
f 54//93 216//93 241//93 110//93
f 216//94 82//94 214//94 241//94
f 211//95 242//95 213//95 81//95
f 56//96 152//96 242//96 211//96
f 152//97 26//97 150//97 242//97
f 135//98 243//98 212//98 39//98
f 23//99 112//99 243//99 135//99
f 112//100 56//100 211//100 243//100
f 95//101 244//101 97//101 13//101
f 39//102 212//102 244//102 95//102
f 212//103 81//103 210//103 244//103
f 207//104 245//104 209//104 80//104
f 43//105 99//105 245//105 207//105
f 99//106 15//106 151//106 245//106
f 147//7 246//7 208//7 51//7
f 10//7 139//7 246//7 147//7
f 139//7 43//7 207//7 246//7
f 107//107 247//107 112//107 23//107
f 51//108 208//108 247//108 107//108
f 208//109 80//109 206//109 247//109
f 203//110 248//110 205//110 79//110
f 31//111 87//111 248//111 203//111
f 87//112 8//112 89//112 248//112
f 151//113 249//113 204//113 55//113
f 15//114 127//114 249//114 151//114
f 127//115 31//115 203//115 249//115
f 111//116 250//116 113//116 26//116
f 55//117 204//117 250//117 111//117
f 204//118 79//118 202//118 250//118
f 199//7 251//7 201//7 78//7
f 60//119 156//119 251//119 199//119
f 156//120 27//120 154//120 251//120
f 130//121 252//121 200//121 34//121
f 18//122 116//122 252//122 130//122
f 116//123 60//123 199//123 252//123
f 90//7 253//7 96//7 9//7
f 34//7 200//7 253//7 90//7
f 200//7 78//7 198//7 253//7
f 195//124 254//124 197//124 77//124
f 47//125 103//125 254//125 195//125
f 103//126 19//126 155//126 254//126
f 142//127 255//127 196//127 46//127
f 5//128 143//128 255//128 142//128
f 143//129 47//129 195//129 255//129
f 102//130 256//130 116//130 18//130
f 46//131 196//131 256//131 102//131
f 196//132 77//132 194//132 256//132
f 191//7 257//7 193//7 76//7
f 35//7 91//7 257//7 191//7
f 91//7 10//7 147//7 257//7
f 155//133 258//133 192//133 59//133
f 19//134 131//134 258//134 155//134
f 131//135 35//135 191//135 258//135
f 115//120 259//120 117//120 27//120
f 59//136 192//136 259//136 115//136
f 192//7 76//7 190//7 259//7
f 187//137 260//137 189//137 75//137
f 64//138 160//138 260//138 187//138
f 160//139 28//139 158//139 260//139
f 126//140 261//140 188//140 30//140
f 14//141 120//141 261//141 126//141
f 120//142 64//142 187//142 261//142
f 86//143 262//143 144//143 6//143
f 30//144 188//144 262//144 86//144
f 188//145 75//145 186//145 262//145
f 183//146 263//146 185//146 74//146
f 40//147 136//147 263//147 183//147
f 136//148 24//148 159//148 263//148
f 138//7 264//7 184//7 42//7
f 9//7 96//7 264//7 138//7
f 96//7 40//7 183//7 264//7
f 98//149 265//149 120//149 14//149
f 42//150 184//150 265//150 98//150
f 184//151 74//151 182//151 265//151
f 179//152 266//152 181//152 73//152
f 52//153 148//153 266//153 179//153
f 148//154 13//154 146//154 266//154
f 159//155 267//155 180//155 63//155
f 24//156 108//156 267//156 159//156
f 108//157 52//157 179//157 267//157
f 119//158 268//158 121//158 28//158
f 63//159 180//159 268//159 119//159
f 180//160 73//160 178//160 268//160
f 175//7 269//7 177//7 72//7
f 68//161 164//161 269//161 175//161
f 164//162 29//162 162//162 269//162
f 134//163 270//163 176//163 38//163
f 22//164 124//164 270//164 134//164
f 124//165 68//165 175//165 270//165
f 94//7 271//7 140//7 11//7
f 38//7 176//7 271//7 94//7
f 176//7 72//7 174//7 271//7
f 171//166 272//166 173//166 71//166
f 41//167 137//167 272//167 171//167
f 137//168 25//168 163//168 272//168
f 146//169 273//169 172//169 50//169
f 13//170 97//170 273//170 146//170
f 97//171 41//171 171//171 273//171
f 106//172 274//172 124//172 22//172
f 50//173 172//173 274//173 106//173
f 172//174 71//174 170//174 274//174
f 167//7 275//7 169//7 70//7
f 53//7 149//7 275//7 167//7
f 149//7 12//7 93//7 275//7
f 163//175 276//175 168//175 67//175
f 25//176 109//176 276//176 163//176
f 109//177 53//177 167//177 276//177
f 123//162 277//162 125//162 29//162
f 67//178 168//178 277//178 123//178
f 168//7 70//7 166//7 277//7
f 166//179 278//179 165//179 69//179
f 70//180 169//180 278//180 166//180
f 169//181 37//181 133//181 278//181
f 170//182 279//182 164//182 68//182
f 71//183 173//183 279//183 170//183
f 173//184 67//184 123//184 279//184
f 174//185 280//185 100//185 44//185
f 72//186 177//186 280//186 174//186
f 177//187 66//187 122//187 280//187
f 178//188 281//188 161//188 65//188
f 73//189 181//189 281//189 178//189
f 181//190 50//190 106//190 281//190
f 182//191 282//191 160//191 64//191
f 74//7 185//7 282//7 182//7
f 185//192 63//192 119//192 282//192
f 186//193 283//193 104//193 48//193
f 75//194 189//194 283//194 186//194
f 189//195 62//195 118//195 283//195
f 190//196 284//196 157//196 61//196
f 76//197 193//197 284//197 190//197
f 193//198 51//198 107//198 284//198
f 194//199 285//199 156//199 60//199
f 77//200 197//200 285//200 194//200
f 197//201 59//201 115//201 285//201
f 198//202 286//202 136//202 40//202
f 78//203 201//203 286//203 198//203
f 201//204 58//204 114//204 286//204
f 202//205 287//205 153//205 57//205
f 79//206 205//206 287//206 202//206
f 205//207 33//207 129//207 287//207
f 206//208 288//208 152//208 56//208
f 80//7 209//7 288//7 206//7
f 209//209 55//209 111//209 288//209
f 210//210 289//210 137//210 41//210
f 81//211 213//211 289//211 210//211
f 213//212 54//212 110//212 289//212
f 214//7 290//7 149//7 53//7
f 82//7 217//7 290//7 214//7
f 217//7 45//7 141//7 290//7
f 218//213 291//213 148//213 52//213
f 83//214 221//214 291//214 218//214
f 221//215 39//215 95//215 291//215
f 222//7 292//7 92//7 36//7
f 84//7 225//7 292//7 222//7
f 225//7 38//7 94//7 292//7
f 226//216 293//216 88//216 32//216
f 85//217 229//217 293//217 226//217
f 229//218 49//218 145//218 293//218
